<?xml version="1.0" encoding="UTF-8" standalone="no"?>
<!-- Created with Inkscape (http://www.inkscape.org/) -->

<svg
   width="72.930511mm"
   height="80.845383mm"
   viewBox="0 0 72.930511 80.845383"
   version="1.1"
   id="svg5"
   xmlns="http://www.w3.org/2000/svg"
   xmlns:svg="http://www.w3.org/2000/svg">
  <defs
     id="defs2" />
  <g
     id="layer1"
     transform="translate(-137.07044,-20.886003)">
    <path
       id="path504"
       style="font-weight:900;font-size:15.6033px;font-family:Arial;-inkscape-font-specification:'Nunito, @wght=900';text-align:center;text-anchor:middle;opacity:1;fill:#000000;stroke:none;stroke-width:50.2681;stroke-linecap:square"
       d="m 201.06533,20.886003 1.65362,3.216869 1.9588,-3.039396 z m -3.93628,1.108649 v 3.618644 l 3.13284,-1.809322 z m 3.68404,1.64113 -2.39478,2.709339 3.5439,0.71622 z m -5.5245,0.716279 -2.75291,3.198189 4.14806,0.781665 z m 7.88192,1.205125 v 4.219701 l 3.65289,-2.111415 z m -4.92036,1.451245 -1.7595,3.833474 4.20099,-0.395321 z m -8.55457,0.08075 -0.79722,2.964671 v -1.510358 c -6.9e-4,0.08256 -0.006,0.162105 -0.006,0.245871 v 1.286121 l -0.44842,1.669149 0.44842,-0.12173 v 2.896152 l -0.34254,-0.199469 v 5.424826 l 0.34254,-0.199469 v 26.523187 c 0,5.924521 -1.31091,10.383882 -3.92695,13.38459 -2.61604,3.000768 -6.38635,4.503111 -11.31062,4.503111 -5.00121,0 -8.80669,-1.502343 -11.4227,-4.503111 -2.61604,-3.000708 -3.92693,-7.460069 -3.92693,-13.38459 v -37.27943 c 0,-0.08376 -0.002,-0.163311 -0.003,-0.245872 h -21.22571 c -7e-4,0.08256 -0.006,0.162709 -0.006,0.245872 v 37.045853 c 0,5.924522 0.76562,11.158857 2.30448,15.698427 1.61578,4.462614 3.9634,8.194667 7.04108,11.19538 3.1546,3.000701 7.00459,5.268685 11.54414,6.807547 4.53958,1.461841 9.77079,2.195481 15.69531,2.195481 7.84807,0 14.46676,-1.31095 19.8527,-3.926949 5.38591,-2.692943 9.42418,-6.692985 12.11715,-12.001926 2.76988,-5.385955 4.15427,-12.042966 4.15427,-19.96796 v -24.11281 l 0.19309,-0.828368 -0.19309,0.06026 V 30.409101 l 0.22138,-0.127756 -0.22111,-0.127757 v -1.36398 c 0,-0.08316 -0.002,-0.163913 -0.003,-0.245871 h -0.003 v 1.606898 l -3.42597,-1.977512 v 4.216503 l 3.42556,-1.977452 v 10.541408 l -4.41587,1.339091 3.51899,3.297862 0.89688,-3.842874 V 52.65028 L 188.89735,40.595443 v -0.498371 -0.554414 l 4.34735,-2.509991 -4.34735,-2.509991 v -2.899288 l 4.2041,-1.124195 z m -0.79722,13.007828 4.69614,2.709279 v -5.421751 z m 6.61445,-9.983981 -1.56642,4.559096 4.73039,-0.921774 z m 7.78538,0.255514 -4.14494,0.775457 2.74357,3.204455 z m -10.30784,0.488728 -3.82417,2.933516 4.45323,1.846682 z m 11.3137,0.457995 -2.00862,3.708973 4.21656,-0.118115 z m -4.12002,2.329384 -1.17092,4.677451 4.63386,-1.323484 z m 9.41719,0.479689 -3.65289,2.108282 3.65289,2.111415 z m -11.62823,0.06207 -3.83974,2.917968 4.44699,1.865363 z m 6.40269,2.678184 0.26472,4.811352 4.03595,-2.634612 z m -0.87507,0.348919 -4.01104,2.67505 4.32244,2.136303 z m -9.38294,0.171146 v 5.42175 l 4.69613,-2.709277 z m 4.69613,3.011434 -4.69613,2.712413 4.69613,2.712411 z m 0.52321,0 v 5.424824 l 4.69613,-2.712411 z m 4.69613,3.014448 -4.69613,2.712473 4.69613,2.712411 z m 0.52319,0 v 5.424884 l 4.69614,-2.712411 z m 4.69614,3.011374 -4.69614,2.712473 4.69614,2.712413 z" />
  </g>
</svg>
