<?xml version="1.0" encoding="UTF-8" standalone="no"?>
<!-- Created with Inkscape (http://www.inkscape.org/) -->

<svg
   width="84.866974mm"
   height="101.24654mm"
   viewBox="0 0 84.866974 101.24654"
   version="1.1"
   id="svg5"
   xmlns="http://www.w3.org/2000/svg"
   xmlns:svg="http://www.w3.org/2000/svg">
  <defs
     id="defs2" />
  <g
     id="layer1"
     transform="translate(-2.5743275,-161.25254)">
    <path
       id="path442"
       style="font-weight:900;font-size:15.6033px;font-family:Arial;-inkscape-font-specification:'Nunito, @wght=900';text-align:center;text-anchor:middle;fill:#ffffff;stroke:none;stroke-width:50.2681;stroke-linecap:square"
       d="m 72.536958,161.25255 1.653614,3.21687 1.9588,-3.0394 z m -3.936283,1.10865 v 3.61863 l 3.132834,-1.80931 z m 3.684037,1.64113 -2.394781,2.70933 3.543902,0.71622 z m -5.524499,0.71628 -2.752909,3.19818 4.148051,0.78167 z m 7.881912,1.20512 v 4.2197 l 3.652892,-2.11142 z m -4.920357,1.45124 -1.759494,3.83347 4.200985,-0.39532 z m -8.554568,0.0807 -0.797217,2.96467 v -1.51036 c -9.64e-4,0.0826 -0.006,0.16211 -0.006,0.24587 v 1.28612 l -0.448413,1.66916 0.448413,-0.12173 v 2.89615 l -0.342531,-0.19947 v 5.42483 l 0.342531,-0.19947 v 26.52319 c 0,5.92451 -1.310907,10.38388 -3.926941,13.38458 -2.616,3.00078 -6.386312,4.50312 -11.310587,4.50312 -5.001204,0 -8.806686,-1.50234 -11.422691,-4.50312 -2.616047,-3.0007 -3.926942,-7.46007 -3.926942,-13.38458 V 169.1552 c 0,-0.0838 -0.0021,-0.16331 -0.0032,-0.24587 H 8.54765 c -9.7e-4,0.0826 -0.00599,0.16271 -0.00599,0.24587 v 37.04586 c 0,5.92452 0.7656225,11.15885 2.304471,15.69843 1.615775,4.46261 3.963407,8.19466 7.041088,11.19537 3.1546,3.0007 7.004587,5.26869 11.544145,6.80755 4.539564,1.46184 9.770784,2.19548 15.695305,2.19548 7.848075,0 14.46676,-1.31095 19.852697,-3.92695 5.385909,-2.69294 9.424179,-6.69298 12.117151,-12.00192 2.769891,-5.38596 4.154276,-12.04297 4.154276,-19.96796 v -24.11278 l 0.193081,-0.82836 -0.193081,0.0602 V 170.7756 l 0.221067,-0.12776 -0.221103,-0.12775 v -1.36399 c 0,-0.0831 -0.0022,-0.1639 -0.0032,-0.24587 h -0.0032 v 1.6069 l -3.425975,-1.97751 v 4.2165 l 3.425565,-1.97745 v 10.54141 l -4.415863,1.3391 3.518988,3.29785 0.896875,-3.84287 v 10.90262 l -20.874059,-12.0548 v -0.49837 -0.55441 l 4.347351,-2.51 -4.347351,-2.50998 v -2.89929 l 4.204101,-1.1242 z m -0.797217,13.00783 4.696132,2.70928 v -5.42175 z m 6.614448,-9.98398 -1.566414,4.5591 4.730392,-0.92178 z m 7.785371,0.25552 -4.144929,0.77546 2.743563,3.20444 z m -10.30783,0.48873 -3.824177,2.93351 4.453233,1.84668 z m 11.313701,0.45799 -2.008625,3.70897 4.216557,-0.11812 z m -4.120017,2.32938 -1.170923,4.67745 4.633857,-1.32348 z m 9.417182,0.47969 -3.652898,2.10828 3.652898,2.11142 z m -11.628229,0.0621 -3.839742,2.91797 4.447001,1.86536 z m 6.402686,2.67819 0.264733,4.81134 4.035939,-2.6346 z m -0.875071,0.34892 -4.011026,2.67505 4.322438,2.1363 z m -9.382929,0.17114 v 5.42175 l 4.696132,-2.70927 z m 4.696132,3.01144 -4.696132,2.7124 4.696132,2.71242 z m 0.523199,0 v 5.42482 l 4.696131,-2.71242 z m 4.696131,3.01445 -4.696131,2.71246 4.696131,2.71242 z m 0.523199,0 v 5.42488 l 4.696132,-2.71242 z m 4.696132,3.01136 -4.696132,2.71248 4.696132,2.71241 z" />
    <text
       xml:space="preserve"
       style="font-style:normal;font-variant:normal;font-weight:normal;font-stretch:normal;font-size:94.0293px;line-height:0;font-family:Nunito;-inkscape-font-specification:'Nunito, @wght=900';font-variant-ligatures:normal;font-variant-caps:normal;font-variant-numeric:normal;font-variant-east-asian:normal;font-variation-settings:'wght' 900;text-align:center;text-anchor:middle;fill:#ffffff;stroke:none;stroke-width:40.9545;stroke-linecap:square;stop-color:#000000"
       x="45.00782"
       y="259.0976"
       id="text448"><tspan
         id="tspan446"
         style="font-style:normal;font-variant:normal;font-weight:300;font-stretch:normal;font-size:17.0074px;font-family:Jura;-inkscape-font-specification:'Jura, Light';font-variant-ligatures:normal;font-variant-caps:normal;font-variant-numeric:normal;font-variant-east-asian:normal;fill:#ffffff;stroke-width:40.9544"
         x="45.00782"
         y="259.0976">uLearning</tspan></text>
  </g>
</svg>
