<?xml version="1.0" encoding="UTF-8" standalone="no"?>
<!-- Created with Inkscape (http://www.inkscape.org/) -->

<svg
   width="72.929504mm"
   height="80.845352mm"
   viewBox="0 0 72.929504 80.845352"
   version="1.1"
   id="svg5"
   xmlns="http://www.w3.org/2000/svg"
   xmlns:svg="http://www.w3.org/2000/svg">
  <defs
     id="defs2" />
  <g
     id="layer1"
     transform="translate(-137.0705,-161.25254)">
    <path
       id="path512"
       style="font-weight:900;font-size:15.6033px;font-family:Arial;-inkscape-font-specification:'Nunito, @wght=900';text-align:center;text-anchor:middle;opacity:1;fill:#ffffff;stroke:none;stroke-width:50.2681;stroke-linecap:square"
       d="m 201.06533,161.25254 1.65362,3.21687 1.9588,-3.0394 z m -3.93628,1.10865 v 3.61864 l 3.13284,-1.80932 z m 3.68404,1.64112 -2.39478,2.70935 3.5439,0.71621 z m -5.5245,0.71629 -2.75291,3.19818 4.14806,0.78167 z m 7.88192,1.20512 v 4.2197 l 3.65289,-2.11142 z m -4.92036,1.45125 -1.7595,3.83346 4.20099,-0.39532 z m -8.55457,0.0807 -0.79722,2.96466 v -1.51035 c -6.9e-4,0.0826 -0.006,0.1621 -0.006,0.24587 v 1.28612 l -0.44842,1.66915 0.44842,-0.12173 v 2.89616 l -0.34254,-0.19948 v 5.42483 l 0.34254,-0.19947 v 26.52319 c 0,5.92451 -1.31091,10.38388 -3.92695,13.38458 -2.616,3.00077 -6.38631,4.50312 -11.31058,4.50312 -5.00121,0 -8.80669,-1.50235 -11.4227,-4.50312 -2.61604,-3.0007 -3.92693,-7.46007 -3.92693,-13.38458 V 169.1552 c 0,-0.0838 -0.002,-0.16331 -0.003,-0.24588 h -21.22571 c -7e-4,0.0826 -0.006,0.16271 -0.006,0.24588 v 37.04585 c 0,5.92453 0.76563,11.15886 2.30448,15.69843 1.61578,4.46261 3.9634,8.19466 7.04108,11.19537 3.1546,3.0007 7.00459,5.26869 11.54414,6.80755 4.53958,1.46184 9.7708,2.19548 15.69531,2.19548 7.84808,0 14.46676,-1.31096 19.8527,-3.92695 5.38591,-2.69294 9.42418,-6.69298 12.11715,-12.00192 2.76989,-5.38596 4.15427,-12.04297 4.15427,-19.96796 v -24.11282 l 0.19309,-0.82836 -0.19309,0.0602 V 170.77555 L 210,170.64779 l -0.2211,-0.12776 v -1.36397 c 0,-0.0831 -0.002,-0.16391 -0.003,-0.24588 h -0.003 v 1.60691 l -3.42597,-1.97752 v 4.2165 l 3.42556,-1.97745 v 10.54141 l -4.41586,1.3391 3.51899,3.29785 0.89687,-3.84287 v 10.90262 l -20.87405,-12.05484 v -0.49837 -0.55441 l 4.34734,-2.51 -4.34734,-2.50999 v -2.89928 l 4.2041,-1.1242 z m -0.79722,13.00782 4.69614,2.70928 v -5.42171 z m 6.61445,-9.98397 -1.56642,4.55909 4.73039,-0.92178 z m 7.78538,0.25551 -4.14494,0.77546 2.74357,3.20445 z m -10.30784,0.48873 -3.82417,2.93351 4.45323,1.84668 z m 11.3137,0.45799 -2.00862,3.70897 4.21656,-0.11812 z m -4.12002,2.32939 -1.17092,4.67745 4.63386,-1.32348 z m 9.41719,0.47968 -3.65289,2.10828 3.65289,2.11142 z m -11.62823,0.0621 -3.83974,2.91797 4.44699,1.86537 z m 6.40269,2.67819 0.26472,4.81136 4.03595,-2.63462 z m -0.87507,0.34892 -4.01104,2.67505 4.32244,2.1363 z m -9.38294,0.17115 v 5.42174 l 4.69613,-2.70927 z m 4.69613,3.01143 -4.69613,2.71241 4.69613,2.71241 z m 0.52321,0 v 5.42482 l 4.69613,-2.71241 z m 4.69613,3.01445 -4.69613,2.71247 4.69613,2.71241 z m 0.52319,0 v 5.42488 l 4.69614,-2.71241 z m 4.69614,3.01137 -4.69614,2.71248 4.69614,2.7124 z" />
  </g>
</svg>
