<?xml version="1.0" encoding="UTF-8" standalone="no"?>
<!-- Created with Inkscape (http://www.inkscape.org/) -->

<svg
   width="84.866974mm"
   height="101.24652mm"
   viewBox="0 0 84.866974 101.24652"
   version="1.1"
   id="svg5"
   xmlns="http://www.w3.org/2000/svg"
   xmlns:svg="http://www.w3.org/2000/svg">
  <defs
     id="defs2" />
  <g
     id="layer1"
     transform="translate(-5.3929464,-20.886003)">
    <path
       id="path439"
       style="font-weight:900;font-size:15.6033px;font-family:Arial;-inkscape-font-specification:'Nunito, @wght=900';text-align:center;text-anchor:middle;fill:#000000;stroke:none;stroke-width:50.2681;stroke-linecap:square"
       d="m 75.355559,20.886003 1.653614,3.216913 1.958801,-3.039409 z m -3.936282,1.108639 v 3.618637 l 3.132833,-1.80932 z m 3.684035,1.641155 -2.39478,2.70931 3.543901,0.716255 z m -5.524498,0.716256 -2.752909,3.198231 4.148051,0.781646 z m 7.881912,1.20517 v 4.219674 l 3.652892,-2.111392 z m -4.920356,1.451198 -1.759495,3.833511 4.200985,-0.395502 z m -8.554568,0.081 -0.797218,2.964672 v -1.510364 c -9.64e-4,0.08268 -0.006,0.162226 -0.006,0.245991 v 1.286139 l -0.448412,1.669185 0.448412,-0.121428 v 2.896159 l -0.342531,-0.199288 v 5.424849 l 0.342531,-0.199288 V 66.06924 c 0,5.924497 -1.310906,10.383906 -3.926942,13.384613 -2.615998,3.000745 -6.386312,4.503058 -11.310585,4.503058 -5.001204,0 -8.806687,-1.502313 -11.422692,-4.503058 C 33.906327,76.453146 32.595432,71.993737 32.595432,66.06924 V 28.789777 c 0,-0.08365 -0.0021,-0.163311 -0.0032,-0.245992 H 11.366251 c -9.7e-4,0.08232 -0.006,0.162649 -0.006,0.245992 V 65.83568 c 0,5.924491 0.765623,11.158845 2.304473,15.698421 1.615774,4.462621 3.963406,8.194628 7.041088,11.195361 3.154599,3.000732 7.004586,5.268696 11.544144,6.807537 4.539565,1.461881 9.770784,2.195471 15.695306,2.195471 7.848074,0 14.466758,-1.31091 19.852696,-3.926939 5.385909,-2.692954 9.424179,-6.692953 12.117151,-12.001932 C 82.685,80.417667 84.069385,73.760668 84.069385,65.83568 V 41.722832 l 0.19308,-0.828361 -0.19308,0.05906 V 30.409028 l 0.221103,-0.127696 -0.221103,-0.127697 v -1.363998 c 0,-0.08334 -0.0022,-0.163552 -0.0032,-0.245991 h -0.0032 V 30.15055 L 80.63742,28.173062 v 4.216558 l 3.425565,-1.977483 v 10.54139 l -4.415863,1.339086 3.518988,3.29788 0.896875,-3.842858 V 52.650269 L 63.188993,40.595391 v -0.49825 -0.554294 l 4.347352,-2.510003 -4.347352,-2.510003 v -2.899275 l 4.204102,-1.124208 z m -0.797218,13.0078 4.696132,2.709308 v -5.421733 z m 6.614448,-9.983957 -1.566413,4.559113 4.73039,-0.921793 z m 7.785372,0.255333 -4.14493,0.775426 2.743563,3.204456 z m -10.307831,0.488908 -3.824177,2.933528 4.453233,1.846695 z m 11.313702,0.457814 -2.008626,3.708949 4.216557,-0.118356 z m -4.120017,2.329379 -1.170924,4.67745 4.633856,-1.323508 z m 9.417182,0.479569 -3.652899,2.108275 3.652899,2.111397 z m -11.62823,0.06225 -3.839742,2.917956 4.447001,1.865375 z m 6.402686,2.678171 0.264733,4.81136 4.035939,-2.634572 z m -0.875071,0.348799 -4.011026,2.675057 4.322438,2.136303 z m -9.382929,0.171267 v 5.421733 l 4.696132,-2.709308 z m 4.696132,3.01138 -4.696132,2.712425 4.696132,2.712425 z m 0.523198,0 v 5.42485 l 4.696133,-2.712425 z m 4.696133,3.014496 -4.696133,2.712425 4.696133,2.712425 z m 0.523198,0 v 5.42485 l 4.696132,-2.712425 z m 4.696132,3.011381 -4.696132,2.712425 4.696132,2.712424 z" />
    <text
       xml:space="preserve"
       style="font-style:normal;font-variant:normal;font-weight:normal;font-stretch:normal;font-size:94.0293px;line-height:0;font-family:Nunito;-inkscape-font-specification:'Nunito, @wght=900';font-variant-ligatures:normal;font-variant-caps:normal;font-variant-numeric:normal;font-variant-east-asian:normal;font-variation-settings:'wght' 900;text-align:center;text-anchor:middle;fill:#000000;stroke:none;stroke-width:40.9545;stroke-linecap:square;stop-color:#000000"
       x="47.826439"
       y="118.73105"
       id="text1342"><tspan
         id="tspan1340"
         style="font-style:normal;font-variant:normal;font-weight:300;font-stretch:normal;font-size:17.0074px;font-family:Jura;-inkscape-font-specification:'Jura, Light';font-variant-ligatures:normal;font-variant-caps:normal;font-variant-numeric:normal;font-variant-east-asian:normal;stroke-width:40.9544"
         x="47.826439"
         y="118.73105">uLearning</tspan></text>
  </g>
</svg>
